<svg width="520" height="505" viewBox="0 0 520 505" fill="none" xmlns="http://www.w3.org/2000/svg">
<path fill-rule="evenodd" clip-rule="evenodd" d="M283.827 62.0572C346.856 52.8779 407.569 -24.7044 462.207 7.99398C515.119 39.6602 480.135 125.336 490.919 185.993C499.676 235.256 524.178 279.829 519.384 329.632C513.589 389.831 514.336 468.095 461.006 496.743C406.304 526.128 344.681 468.59 283.827 456.17C239.211 447.065 194.712 450.729 152.459 433.771C97.4743 411.703 23.8286 399.773 4.18496 343.937C-15.4051 288.254 38.7581 235.254 63.812 181.8C85.2368 136.089 95.2482 79.1242 139.623 54.9731C182.942 31.3971 235.01 69.1666 283.827 62.0572Z" fill="#3999FF"/>
</svg>
