<svg width="710" height="695" viewBox="0 0 710 695" fill="none" xmlns="http://www.w3.org/2000/svg">
<path fill-rule="evenodd" clip-rule="evenodd" d="M273.26 575.208C227.084 557.841 181.388 539.005 148.878 501.899C106.952 454.045 57.082 399.491 63.8861 336.233C70.7639 272.29 134.121 232.497 182.423 190.035C230.108 148.114 277.509 98.1516 340.775 92.8176C403.584 87.5222 465.563 119.293 511.666 162.276C552.331 200.19 559.994 258.524 575.707 311.856C589.135 357.434 607.134 403.134 596.253 449.387C585.504 495.084 555.195 534.345 516.96 561.582C481.427 586.896 436.991 591.438 393.431 593.873C351.941 596.193 312.154 589.836 273.26 575.208Z" fill="#FDB62F"/>
</svg>
