<svg width="32" height="24" viewBox="0 0 32 24" fill="none" xmlns="http://www.w3.org/2000/svg">
<path d="M0.563048 7.27625C0.130259 6.52664 0.671245 5.58963 1.53682 5.58963L5.36871 5.58963C6.61424 5.58962 7.76544 6.25315 8.38978 7.33089L14.1729 17.3137C14.3931 17.6937 14.3718 18.1672 14.1184 18.5259L11.2474 22.5912C10.7741 23.2614 9.76547 23.2153 9.3552 22.5047L0.563048 7.27625Z" fill="#007BFF"/>
<path d="M20.1593 5.93502C19.7726 5.2652 20.1619 4.41399 20.9216 4.26847L23.9521 3.68792C25.4092 3.4088 26.8835 4.08093 27.6284 5.36389L30.2654 9.90567C30.5195 10.3434 30.4499 10.897 30.0952 11.2582L26.8097 14.6033C26.2886 15.1338 25.4054 15.0215 25.0337 14.3776L20.1593 5.93502Z" fill="#007BFF"/>
<path d="M9.24908 4.35902C8.81629 3.6094 9.35728 2.67239 10.2229 2.67239L14.0547 2.67239C15.3003 2.67239 16.4515 3.33591 17.0758 4.41365L22.8589 14.3964C23.0791 14.7765 23.0578 15.2499 22.8045 15.6087L19.9335 19.6739C19.4601 20.3442 18.4515 20.2981 18.0412 19.5875L9.24908 4.35902Z" fill="#007BFF"/>
</svg>
